PathFileType	3	(X/Y/Z)	C:\Users\koon_\Desktop\
DataRate	CameraRate	NumFrames	NumMarkers	Units	OrigDataRate	OrigDataStartFrame	OrigNumFrames
100.0	100.0	5	27	mm	100.0	1508	2010	
Frame#	Time	get:LFHD			get:RFHD			get:LBHD			get:RBHD			get:C7			get:T10			get:CLAV			get:STRN			get:RBAK			get:LSHO			get:LUPA			get:LELB			get:LFRA			get:LWRA			get:LWRB			get:LFIN			get:RSHO			get:RUPA			get:RELB			get:RFRA			get:RWRA			get:RWRB			get:RFIN			get:LASI			get:RASI			get:LPSI			get:RPSI			
		X1	Y1	Z1	X2	Y2	Z2	X3	Y3	Z3	X4	Y4	Z4	X5	Y5	Z5	X6	Y6	Z6	X7	Y7	Z7	X8	Y8	Z8	X9	Y9	Z9	X10	Y10	Z10	X11	Y11	Z11	X12	Y12	Z12	X13	Y13	Z13	X14	Y14	Z14	X15	Y15	Z15	X16	Y16	Z16	X17	Y17	Z17	X18	Y18	Z18	X19	Y19	Z19	X20	Y20	Z20	X21	Y21	Z21	X22	Y22	Z22	X23	Y23	Z23	X24	Y24	Z24	X25	Y25	Z25	X26	Y26	Z26	X27	Y27	Z27	
1508	15.07	120.61056	1689.231	-56.269146	-36.438587	1675.5525	-58.76112	118.00243	1677.265	-179.98994	-8.4724989	1676.1804	-202.73773	44.133854	1497.3312	-205.53362	26.582827	1247.6052	-242.65785	65.168503	1433.8873	-11.950539	79.772087	1242.1254	13.302526	-48.756538	1436.8827	-218.5638	202.80762	1493.2292	-134.1116	274.12555	1370.7089	-83.909851	318.01337	1221.635	-20.7803	260.64725	1207.0885	92.093292	235.96501	1160.099	172.08687	304.57516	1155.4739	175.72296	274.85605	1158.0927	258.81415	-89.264938	1496.335	-96.502396	-211.092	1318.165	-27.236736	-261.24405	1225.0087	-28.80496	-177.61273	1258.2107	25.751278	-65.894608	1234.5929	124.45953	-126.38323	1211.7419	160.94975	-61.502945	1257.129	202.65622	180.14941	1045.9021	-101.65775	-86.861893	1020.0691	-56.379276	63.787399	1092.647	-278.6441	-41.751839	1076.2715	-260.86813
1509	15.08	121.06973	1703.0948	-59.601498	-35.99268	1689.4972	-61.665787	118.31773	1691.5844	-183.36612	-8.3802023	1690.4299	-205.71503	44.356514	1510.0676	-209.58604	26.580263	1261.9658	-243.1201	66.473099	1453.9954	-12.693698	80.838898	1260.2408	13.140934	-49.496174	1448.3365	-221.97514	202.73755	1508.1525	-138.0392	274.27661	1388.5359	-83.922737	317.73383	1240.8354	-17.333841	256.56131	1233.4523	94.157501	228.25696	1192.1194	176.59915	296.92853	1187.9479	183.27354	263.01553	1195.0021	265.3808	-88.701302	1511.7704	-100.55567	-210.85199	1336.2898	-23.309305	-260.84119	1242.243	-20.615925	-176.49516	1281.6498	26.562363	-58.035034	1271.4442	119.84799	-115.23446	1247.6661	161.35838	-50.325153	1299.3392	196.1837	178.92693	1061.7391	-99.287216	-87.440414	1036.4612	-53.844521	64.013969	1109.9192	-275.5495	-43.388683	1094.7827	-257.75174
1510	15.09	121.42345	1716.5981	-62.663624	-35.386002	1702.7476	-65.385483	118.68219	1704.9193	-186.43877	-8.1203375	1703.9153	-208.98407	44.373791	1520.3651	-214.1628	26.336937	1274.6323	-244.42346	67.962074	1471.4059	-13.348774	80.350624	1275.7887	11.929833	-50.224236	1457.8308	-225.25064	202.87325	1520.7732	-142.39476	274.63913	1404.4095	-83.768196	318.17636	1258.4724	-13.346446	252.59575	1257.8511	95.666649	220.9339	1221.7291	178.87405	288.83655	1218.6755	189.38785	251.00487	1230.9867	269.6095	-87.910027	1524.5504	-104.765	-210.06107	1352.6986	-18.212503	-259.50436	1258.5647	-11.78267	-174.83244	1303.4191	27.636517	-52.598843	1304.85	113.27454	-104.20867	1281.9011	160.86638	-40.23909	1339.1844	187.38673	177.85017	1076.8519	-97.911186	-88.959084	1052.4437	-52.358543	64.287323	1125.2235	-274.35379	-43.776596	1110.0619	-254.60403
1511	15.1	121.66285	1729.1234	-65.396744	-35.176918	1715.1716	-67.575317	119.01346	1717.1438	-189.28497	-7.5985713	1715.5065	-211.5208	44.541851	1527.9753	-218.58781	25.924067	1285.7539	-245.99422	68.990303	1486.1833	-14.370123	80.151711	1290.1104	10.971088	-50.254021	1466.234	-228.55348	203.12587	1531.4579	-147.12758	275.26208	1418.3678	-83.606148	318.5943	1274.9211	-8.9787674	248.24643	1280.6565	96.832092	213.32831	1249.6603	180.52596	280.02338	1247.6136	193.9155	238.37584	1265.6827	270.95941	-86.934502	1535.2695	-109.53105	-207.76161	1367.9442	-13.409206	-257.10623	1274.4181	-2.3175769	-173.01454	1324.131	31.516697	-42.539013	1337.9011	104.7581	-93.140533	1314.218	158.9902	-30.925833	1376.4919	176.19292	176.6277	1091.0516	-97.282967	-90.571915	1067.8326	-52.279091	64.027809	1137.8041	-274.47205	-44.261215	1123.5602	-253.67958
1512	15.11	121.79454	1740.3325	-67.814651	-34.696682	1725.7711	-70.85498	119.40161	1728.1925	-191.76334	-7.0246186	1725.9736	-214.0957	45.031521	1534.4594	-222.64795	25.32674	1295.7847	-247.72423	69.677849	1498.7946	-16.31476	80.016869	1303.7288	9.39046	-49.700089	1474.0969	-231.48351	203.50211	1540.8278	-151.52483	275.98367	1430.4852	-83.372612	318.69815	1290.2144	-4.5363846	243.82063	1301.7391	97.620522	203.93924	1276.9766	178.13147	271.39133	1274.9944	197.53152	227.05434	1298.7509	271.02029	-86.099838	1544.5443	-114.56594	-204.18315	1381.8038	-8.8632135	-253.65063	1289.5358	8.1740751	-169.62772	1343.0217	31.190928	-31.348518	1365.6779	96.513428	-82.075256	1344.6663	155.14258	-22.421495	1410.9873	163.2717	175.43799	1104.2588	-96.824646	-92.099731	1082.1907	-52.415825	63.238434	1148.1453	-275.40173	-44.630947	1134.8293	-253.44176
